<svg width="320" height="304" viewBox="0 0 320 304" fill="none" xmlns="http://www.w3.org/2000/svg">
<g clip-path="url(#clip0_2_53)">
<path d="M160 304C248.366 304 320 235.947 320 152C320 68.0527 248.366 0 160 0C71.6344 0 0 68.0527 0 152C0 235.947 71.6344 304 160 304Z" fill="#D2483D"/>
<path d="M266.667 152L96.0205 233.088L169.434 303.73C237.477 299.97 294.099 255.824 313.137 196.147L266.667 152Z" fill="#9E231D"/>
<path d="M156.666 177.419C178.144 177.419 195.556 160.879 195.556 140.475C195.556 120.071 178.144 103.53 156.666 103.53C135.189 103.53 117.777 120.071 117.777 140.475C117.777 160.879 135.189 177.419 156.666 177.419Z" fill="#E39D46"/>
<path d="M156.666 181.513C132.847 181.513 113.467 163.103 113.467 140.474C113.467 117.845 132.846 99.4346 156.666 99.4346C180.486 99.4346 199.865 117.845 199.865 140.474C199.865 163.103 180.486 181.513 156.666 181.513ZM156.666 107.624C137.6 107.624 122.087 122.361 122.087 140.475C122.087 158.589 137.599 173.325 156.666 173.325C175.734 173.325 191.246 158.589 191.246 140.475C191.246 122.361 175.734 107.624 156.666 107.624Z" fill="#F7CA68"/>
<path d="M156.666 158.947C167.405 158.947 176.111 150.677 176.111 140.475C176.111 130.273 167.405 122.002 156.666 122.002C145.927 122.002 137.222 130.273 137.222 140.475C137.222 150.677 145.927 158.947 156.666 158.947Z" fill="#E39D46"/>
<path d="M156.666 163.04C143.569 163.04 132.912 152.916 132.912 140.474C132.912 128.031 143.569 117.907 156.666 117.907C169.764 117.907 180.421 128.031 180.421 140.474C180.421 152.916 169.765 163.04 156.666 163.04ZM156.666 126.096C148.322 126.096 141.532 132.546 141.532 140.474C141.532 148.401 148.322 154.852 156.666 154.852C165.011 154.852 171.801 148.401 171.801 140.474C171.801 132.546 165.011 126.096 156.666 126.096Z" fill="#F7CA68"/>
<path d="M156.666 103.53C156.58 103.53 156.495 103.536 156.409 103.536V177.412C156.495 177.413 156.58 177.418 156.666 177.418C178.144 177.418 195.556 160.877 195.556 140.474C195.556 120.071 178.144 103.53 156.666 103.53Z" fill="#C46116"/>
<path d="M156.666 99.4356C156.58 99.4356 156.495 99.4418 156.409 99.4418V107.63C156.495 107.629 156.58 107.624 156.666 107.624C175.733 107.624 191.246 122.361 191.246 140.475C191.246 158.589 175.734 173.325 156.666 173.325C156.58 173.325 156.495 173.32 156.409 173.319V181.507C156.495 181.507 156.58 181.514 156.666 181.514C180.485 181.514 199.865 163.104 199.865 140.475C199.865 117.846 180.486 99.4356 156.666 99.4356Z" fill="#D89221"/>
<path d="M156.666 122.002C156.579 122.002 156.495 122.014 156.409 122.015V158.935C156.496 158.936 156.579 158.947 156.666 158.947C167.405 158.947 176.111 150.677 176.111 140.475C176.111 130.273 167.405 122.002 156.666 122.002Z" fill="#C46116"/>
<path d="M156.666 117.907C156.58 117.907 156.495 117.912 156.409 117.913V126.108C156.495 126.107 156.579 126.096 156.666 126.096C165.011 126.096 171.801 132.546 171.801 140.474C171.801 148.401 165.011 154.852 156.666 154.852C156.579 154.852 156.495 154.84 156.409 154.839V163.034C156.495 163.035 156.58 163.04 156.666 163.04C169.764 163.04 180.421 152.916 180.421 140.474C180.421 128.031 169.765 117.907 156.666 117.907Z" fill="#D89221"/>
<path d="M106.667 185.778C126.303 185.778 142.222 170.655 142.222 152C142.222 133.345 126.303 118.222 106.667 118.222C87.0299 118.222 71.1111 133.345 71.1111 152C71.1111 170.655 87.0299 185.778 106.667 185.778Z" fill="#E39D46"/>
<path d="M106.667 189.872C84.6847 189.872 66.8013 172.883 66.8013 152C66.8013 131.117 84.6847 114.128 106.667 114.128C128.649 114.128 146.532 131.117 146.532 152C146.532 172.883 128.649 189.872 106.667 189.872ZM106.667 122.316C89.4384 122.316 75.4209 135.633 75.4209 152C75.4209 168.367 89.4384 181.684 106.667 181.684C123.895 181.684 137.912 168.367 137.912 152C137.912 135.633 123.895 122.316 106.667 122.316Z" fill="#F7CA68"/>
<path d="M106.667 168.889C116.485 168.889 124.444 161.327 124.444 152C124.444 142.673 116.485 135.111 106.667 135.111C96.8483 135.111 88.8889 142.673 88.8889 152C88.8889 161.327 96.8483 168.889 106.667 168.889Z" fill="#E39D46"/>
<path d="M106.667 172.983C94.4873 172.983 84.5791 163.57 84.5791 152C84.5791 140.43 94.4873 131.017 106.667 131.017C118.846 131.017 128.754 140.43 128.754 152C128.754 163.57 118.846 172.983 106.667 172.983ZM106.667 139.205C99.2399 139.205 93.1986 144.945 93.1986 152C93.1986 159.055 99.2399 164.795 106.667 164.795C114.093 164.795 120.135 159.055 120.135 152C120.135 144.945 114.093 139.205 106.667 139.205Z" fill="#F7CA68"/>
<path d="M204.444 202.667C228.99 202.667 248.889 183.763 248.889 160.444C248.889 137.126 228.99 118.222 204.444 118.222C179.898 118.222 160 137.126 160 160.444C160 183.763 179.898 202.667 204.444 202.667Z" fill="#E39D46"/>
<path d="M204.444 206.761C177.561 206.761 155.69 185.984 155.69 160.444C155.69 134.905 177.561 114.128 204.444 114.128C231.328 114.128 253.199 134.905 253.199 160.444C253.199 185.984 231.328 206.761 204.444 206.761ZM204.444 122.316C182.314 122.316 164.31 139.42 164.31 160.444C164.31 181.469 182.314 198.572 204.444 198.572C226.575 198.572 244.579 181.469 244.579 160.444C244.579 139.42 226.575 122.316 204.444 122.316Z" fill="#F7CA68"/>
<path d="M204.444 186.034C219.321 186.034 231.38 174.577 231.38 160.444C231.38 146.312 219.321 134.855 204.444 134.855C189.568 134.855 177.508 146.312 177.508 160.444C177.508 174.577 189.568 186.034 204.444 186.034Z" fill="#E39D46"/>
<path d="M204.444 190.128C187.216 190.128 173.199 176.811 173.199 160.444C173.199 144.078 187.216 130.761 204.444 130.761C221.673 130.761 235.69 144.078 235.69 160.444C235.69 176.811 221.673 190.128 204.444 190.128ZM204.444 138.95C191.969 138.95 181.818 148.593 181.818 160.444C181.818 172.296 191.969 181.939 204.444 181.939C216.92 181.939 227.071 172.296 227.071 160.444C227.071 148.593 216.92 138.95 204.444 138.95Z" fill="#F7CA68"/>
<path d="M204.444 168.889C209.354 168.889 213.333 165.108 213.333 160.444C213.333 155.781 209.354 152 204.444 152C199.535 152 195.556 155.781 195.556 160.444C195.556 165.108 199.535 168.889 204.444 168.889Z" fill="#E67E22"/>
<path d="M204.444 172.983C197.166 172.983 191.246 167.359 191.246 160.444C191.246 153.53 197.166 147.906 204.444 147.906C211.723 147.906 217.643 153.53 217.643 160.444C217.643 167.359 211.723 172.983 204.444 172.983ZM204.444 156.094C201.919 156.094 199.865 158.045 199.865 160.444C199.865 162.844 201.919 164.795 204.444 164.795C206.97 164.795 209.024 162.844 209.024 160.444C209.024 158.045 206.97 156.094 204.444 156.094Z" fill="#F7CA68"/>
<path d="M266.667 152C266.667 207.965 218.91 253.333 160 253.333C101.09 253.333 53.3333 207.965 53.3333 152H266.667Z" fill="#F0DEB4"/>
<path d="M156.409 152V253.27C157.602 253.308 158.798 253.333 160 253.333C218.91 253.333 266.667 207.965 266.667 152H156.409Z" fill="#D5C295"/>
<path d="M213.333 122.316C210.953 122.316 209.024 120.483 209.024 118.222V50.6667C209.024 48.4056 210.953 46.5724 213.333 46.5724C215.713 46.5724 217.643 48.4056 217.643 50.6667V118.222C217.643 120.483 215.713 122.316 213.333 122.316Z" fill="#F7CA68"/>
<path d="M195.556 139.205C193.176 139.205 191.246 137.372 191.246 135.111V67.5555C191.246 65.2945 193.176 63.4613 195.556 63.4613C197.936 63.4613 199.865 65.2945 199.865 67.5555V135.111C199.865 137.372 197.936 139.205 195.556 139.205Z" fill="#F7CA68"/>
<path d="M213.333 72.6734H71.1111C68.1352 72.6734 65.7239 70.3827 65.7239 67.5556C65.7239 64.7285 68.1352 62.4377 71.1111 62.4377H213.333C216.309 62.4377 218.721 64.7285 218.721 67.5556C218.721 70.3827 216.309 72.6734 213.333 72.6734Z" fill="#D5C295"/>
<path d="M231.111 55.7845H88.8889C85.913 55.7845 83.5017 53.4938 83.5017 50.6667C83.5017 47.8396 85.913 45.5488 88.8889 45.5488H231.111C234.087 45.5488 236.498 47.8396 236.498 50.6667C236.498 53.4938 234.087 55.7845 231.111 55.7845Z" fill="#D5C295"/>
<path d="M213.333 62.4377H159.641V72.6734H213.333C216.309 72.6734 218.721 70.3827 218.721 67.5556C218.721 64.7285 216.309 62.4377 213.333 62.4377Z" fill="#BCA77E"/>
<path d="M231.111 45.5488H159.641V55.7845H231.111C234.087 55.7845 236.498 53.4938 236.498 50.6667C236.498 47.8396 234.087 45.5488 231.111 45.5488Z" fill="#BCA77E"/>
</g>
<defs>
<clipPath id="clip0_2_53">
<rect width="320" height="304" fill="white"/>
</clipPath>
</defs>
</svg>
